<?xml version="1.0" encoding="UTF-8"?>
<!DOCTYPE svg PUBLIC "-//W3C//DTD SVG 1.1//EN" "http://www.w3.org/Graphics/SVG/1.1/DTD/svg11.dtd">
<!-- Creator: CorelDRAW X8 -->
<svg xmlns="http://www.w3.org/2000/svg" xml:space="preserve" width="1500px" height="888px" version="1.1" style="shape-rendering:geometricPrecision; text-rendering:geometricPrecision; image-rendering:optimizeQuality; fill-rule:evenodd; clip-rule:evenodd"
viewBox="0 0 1278 756"
 xmlns:xlink="http://www.w3.org/1999/xlink">
 <defs>
  <style type="text/css">
   <![CDATA[
    .fil1 {fill:#FEFEFE}
    .fil0 {fill:#FEFEFE;fill-rule:nonzero}
   ]]>
  </style>
 </defs>
 <g id="Layer_x0020_1">
  <metadata id="CorelCorpID_0Corel-Layer"/>
  <path class="fil0" d="M854 605l80 -155 -77 -148 80 0 33 76 33 -76 76 0 -75 148 77 155 -78 0 -35 -81 -35 81 -79 0zm-197 -151c0,-61 8,-103 23,-126 16,-23 44,-34 84,-34 39,0 67,11 83,34 16,23 24,65 24,126 0,61 -8,103 -24,125 -16,23 -44,34 -83,34 -40,0 -68,-11 -84,-34 -15,-22 -23,-64 -23,-125zm72 -3l0 7c0,47 2,75 7,86 4,10 14,16 27,16 14,0 23,-5 28,-15 5,-10 8,-36 8,-77l0 -12 0 -18c0,-39 -3,-64 -8,-75 -5,-10 -14,-15 -27,-15 -14,0 -23,5 -28,14 -5,9 -7,32 -7,68l0 21zm-310 154l0 -404 121 0c34,0 60,9 77,25 17,16 25,40 25,74 0,26 -4,47 -12,62 -8,15 -21,23 -37,26 18,3 33,12 44,29 10,16 16,37 16,64 0,43 -9,74 -27,94 -18,20 -46,30 -84,30l-123 0zm73 -240l25 0c19,0 32,-4 39,-12 8,-8 11,-23 11,-45 0,-20 -3,-34 -11,-41 -7,-7 -21,-11 -41,-11l-23 0 0 109zm0 183l31 0c20,0 33,-5 41,-14 8,-10 12,-27 12,-50 0,-25 -4,-41 -13,-51 -9,-9 -25,-14 -48,-14l-23 0 0 129z"/>
  <path class="fil0" d="M395 605l-39 0 0 -38c-4,14 -12,24 -24,32 -12,8 -26,12 -42,12 -31,0 -55,-14 -71,-42 -16,-29 -25,-70 -25,-124 0,-47 9,-84 25,-110 17,-26 39,-38 69,-38 16,0 30,3 42,10 12,7 20,16 23,28l0 -88 42 -46 0 404zm-39 -153c0,-44 -5,-75 -13,-92 -9,-17 -24,-26 -44,-26 -20,0 -35,9 -44,28 -10,19 -14,48 -14,87 0,44 4,75 13,95 9,20 23,30 43,30 21,0 36,-10 45,-28 9,-19 14,-50 14,-94zm-209 51l41 0c0,36 -9,63 -25,82 -16,19 -38,28 -68,28 -32,0 -56,-12 -72,-38 -15,-25 -23,-64 -23,-117 0,-57 8,-98 23,-124 16,-26 40,-39 73,-39 32,0 55,11 70,33 15,22 23,56 23,102 0,7 0,12 0,16 0,4 0,7 -1,10l-145 0 0 14c0,37 5,65 14,82 8,17 22,26 41,26 15,0 27,-7 36,-20 8,-13 13,-30 13,-53l0 -2zm-104 -81l103 0 0 -8c0,-28 -4,-49 -12,-63 -8,-14 -20,-21 -37,-21 -18,0 -31,7 -40,23 -9,15 -14,38 -14,69z"/>
  <path class="fil1" d="M512 76l551 0c15,-44 56,-76 105,-76 61,0 110,49 110,110 0,48 -30,89 -73,104l0 509 -5 0 -45 0 -401 0 -65 -69 447 0 0 -438c-34,-11 -62,-37 -73,-71l-615 0 64 -69zm597 76l42 -42 -42 -41 18 -18 41 42 41 -42 18 18 -41 41 41 42 -18 17 -41 -41 -41 41 -18 -17z"/>
  <path class="fil0" d="M134 644l0 -13 11 0 0 13 -11 0zm-8 112l0 -9 1 0c3,0 5,0 6,-2 1,-1 1,-4 1,-8l0 -81 11 0 0 82c0,6 -2,11 -4,14 -3,3 -7,4 -14,4l-1 0zm67 -36l-11 -9 7 -8 9 8c1,-4 2,-8 3,-13 0,-5 0,-10 0,-16 0,-17 -1,-29 -4,-35 -3,-6 -8,-9 -16,-9 -8,0 -13,3 -16,10 -3,6 -4,17 -4,33 0,16 1,27 4,33 3,6 8,9 16,9 3,0 5,0 7,0 2,-1 3,-2 5,-3zm8 7c-2,2 -5,4 -8,5 -3,1 -7,1 -12,1 -11,0 -19,-4 -24,-12 -6,-8 -8,-22 -8,-40 0,-19 2,-32 7,-40 5,-9 14,-13 25,-13 11,0 20,4 25,12 5,9 7,22 7,41 0,9 0,17 -2,23 -1,7 -2,12 -4,15l11 9 -6 8 -11 -9zm53 4l0 -10c-2,4 -4,7 -7,9 -3,2 -7,3 -12,3 -6,0 -11,-2 -13,-5 -3,-3 -5,-8 -5,-14l0 -58 11 0 0 58c0,3 1,5 2,7 2,2 4,3 7,3 5,0 9,-2 12,-5 3,-3 4,-8 4,-13l0 -50 11 0 0 75 -10 0zm24 -46l26 0 0 -2c0,-6 -1,-12 -3,-15 -2,-4 -5,-5 -9,-5 -5,0 -8,1 -10,5 -3,4 -4,10 -4,17zm26 21l10 0c0,8 -2,15 -6,20 -4,5 -10,7 -17,7 -8,0 -14,-3 -18,-10 -4,-6 -6,-16 -6,-29 0,-14 2,-24 6,-30 4,-7 10,-10 18,-10 8,0 14,3 18,8 3,6 5,14 5,25 0,2 0,4 0,4 0,1 0,2 0,3l-36 0 0 3c0,10 1,16 4,21 2,4 5,6 10,6 4,0 6,-2 9,-5 2,-3 3,-7 3,-13l0 0zm14 25l0 -75 9 0 0 12c2,-4 4,-7 7,-10 3,-2 7,-4 11,-4 1,0 2,0 2,0 1,0 2,1 2,1l0 11c0,-1 -1,-1 -2,-1 0,0 -1,0 -2,0 -5,0 -9,2 -12,5 -3,4 -5,9 -5,15l0 46 -10 0zm30 24l0 -10c1,1 2,1 3,1 1,1 2,1 3,1 4,0 6,-1 8,-3 2,-2 3,-6 5,-12l-22 -76 11 0 16 60 17 -60 11 0 -23 78c-3,9 -6,14 -9,18 -3,3 -7,4 -13,4 -1,0 -2,0 -3,0 -1,0 -3,-1 -4,-1zm82 -62c0,10 1,18 4,23 2,5 6,7 11,7 5,0 8,-2 10,-7 2,-5 3,-12 3,-23 0,-10 -1,-18 -3,-22 -2,-5 -5,-7 -10,-7 -5,0 -9,2 -11,6 -3,5 -4,13 -4,23zm-10 63l0 -100 10 0 0 9c1,-3 3,-5 6,-8 3,-2 6,-3 10,-3 8,0 14,4 18,10 4,7 6,16 6,29 0,14 -2,24 -6,30 -3,6 -9,9 -17,9 -4,0 -7,0 -10,-2 -2,-2 -5,-4 -6,-7l0 33 -11 0zm53 -25l0 -100 10 0 0 100 -10 0zm52 0l0 -10c-2,4 -4,7 -7,9 -3,2 -7,3 -12,3 -6,0 -11,-2 -13,-5 -3,-3 -5,-8 -5,-14l0 -58 11 0 0 58c0,3 1,5 3,7 1,2 3,3 6,3 5,0 9,-2 12,-5 3,-3 4,-8 4,-13l0 -50 11 0 0 75 -10 0zm25 -37c0,10 1,18 3,22 2,5 6,7 11,7 5,0 9,-2 11,-7 2,-5 3,-12 3,-23 0,-11 -1,-18 -3,-23 -3,-4 -6,-7 -12,-7 -4,0 -8,3 -10,7 -2,5 -3,13 -3,24zm-9 44l10 0c1,3 2,5 4,7 2,1 5,2 9,2 5,0 8,-2 11,-5 2,-3 3,-9 3,-16 0,0 0,-1 0,-2 0,-1 0,-1 0,-2 -2,3 -4,6 -6,8 -3,1 -7,2 -11,2 -7,0 -13,-3 -17,-10 -3,-7 -5,-17 -5,-31 0,-12 2,-21 6,-27 4,-7 9,-10 17,-10 4,0 7,1 10,3 3,2 5,5 6,8l0 -9 10 0 0 71c0,10 -2,17 -6,22 -5,5 -11,7 -19,7 -7,0 -12,-1 -16,-5 -4,-3 -6,-7 -6,-13l0 0zm52 -94l0 -13 11 0 0 13 -11 0zm0 87l0 -75 11 0 0 75 -11 0zm17 0l0 -75 9 0 0 9c2,-3 5,-6 8,-8 3,-2 7,-3 11,-3 7,0 11,2 14,5 3,4 4,10 4,18l0 54 -10 0 0 -55c0,-4 -1,-7 -3,-9 -1,-2 -4,-3 -8,-3 -4,0 -8,1 -11,4 -3,3 -4,7 -4,12l0 51 -10 0z"/>
 </g>
</svg>
